<?xml version="1.0" encoding="UTF-8"?>
<svg width="102px" height="18px" viewBox="0 0 102 18" version="1.1" xmlns="http://www.w3.org/2000/svg" xmlns:xlink="http://www.w3.org/1999/xlink">
    <!-- Generator: Sketch 49 (51002) - http://www.bohemiancoding.com/sketch -->
    <title>Logo</title>
    <desc>Created with Sketch.</desc>
    <defs>
        <linearGradient x1="0%" y1="0%" x2="100%" y2="137.354031%" id="linearGradient-1">
            <stop stop-color="#0CEF8C" offset="0%"></stop>
            <stop stop-color="#6F5BED" offset="100%"></stop>
        </linearGradient>
        <linearGradient x1="118.677015%" y1="18.6770154%" x2="-15.8330475%" y2="116.606477%" id="linearGradient-2">
            <stop stop-color="#0CEF8C" offset="0%"></stop>
            <stop stop-color="#6F5BED" offset="97.0962789%"></stop>
        </linearGradient>
    </defs>
    <g id="landing-page" stroke="none" stroke-width="1" fill="none" fill-rule="evenodd">
        <g id="largeHero" transform="translate(-909.000000, -25.000000)">
            <g id="element-/-misc-/-logo" transform="translate(909.000000, 24.000000)">
                <g id="Logo" transform="translate(0.000000, 1.000000)">
                    <g id="W" fill-rule="nonzero">
                        <path d="M20.809017,0 L27.19096,0 C27.56265,0 27.8044,0.391156 27.63817,0.723607 L23.99999,7.99997 L20.361803,0.723607 C20.195578,0.391156 20.437326,0 20.809017,0 Z" id="path1_fill" fill="url(#linearGradient-1)"></path>
                        <path d="M8.55276,17.1055 L4.99998,9.99997 L0.361803,0.723607 C0.195578,0.391156 0.437326,0 0.809017,0 L7.69096,0 C7.88034,0 8.05347,0.107001 8.13817,0.276393 L12.8882,9.77636 C12.9585,9.91712 12.9585,10.0828 12.8882,10.2236 L9.44718,17.1055 C9.26292,17.474 8.73702,17.474 8.55276,17.1055 Z" id="path2_fill" fill="url(#linearGradient-1)"></path>
                        <path d="M22.8882,10.2236 L19.44718,17.1055 C19.26292,17.474 18.73702,17.474 18.55276,17.1055 L10.361803,0.723607 C10.195578,0.391156 10.437326,0 10.809017,0 L17.69096,0 C17.88034,0 18.05347,0.107001 18.13817,0.276393 L22.8882,9.77636 C22.9585,9.91712 22.9585,10.0828 22.8882,10.2236 Z" id="path3_fill" fill="url(#linearGradient-2)"></path>
                    </g>
                    <path d="M56.612,0.986 L52.571,14 L50.384,14 L47.54,5.108 C47.4619996,4.89199892 47.3900003,4.62800156 47.324,4.316 C47.2879998,4.46600075 47.2520002,4.60699934 47.216,4.739 C47.1799998,4.87100066 47.1410002,4.99399943 47.099,5.108 L44.228,14 L42.032,14 L38,0.986 L40.025,0.986 C40.2350011,0.986 40.4104993,1.03549951 40.5515,1.1345 C40.6925007,1.2335005 40.7869998,1.36699916 40.835,1.535 L43.049,9.32 C43.0970002,9.51200096 43.1434998,9.72049888 43.1885,9.9455 C43.2335002,10.1705011 43.2799998,10.4059988 43.328,10.652 C43.3760002,10.3999987 43.4284997,10.1630011 43.4855,9.941 C43.5425003,9.71899889 43.6039997,9.51200096 43.67,9.32 L46.226,1.535 C46.2740002,1.39699931 46.3684993,1.27100057 46.5095,1.157 C46.6505007,1.04299943 46.822999,0.986 47.027,0.986 L47.738,0.986 C47.9480011,0.986 48.1189993,1.03699949 48.251,1.139 C48.3830007,1.24100051 48.4819997,1.37299919 48.548,1.535 L51.095,9.32 C51.2210006,9.69200186 51.3349995,10.1209976 51.437,10.607 C51.5150004,10.1329976 51.6019995,9.70400192 51.698,9.32 L53.912,1.535 C53.9480002,1.38499925 54.0394993,1.25600054 54.1865,1.148 C54.3335007,1.03999946 54.508999,0.986 54.713,0.986 L56.612,0.986 Z M60.167,4.766 L60.167,14 L57.935,14 L57.935,4.766 L60.167,4.766 Z M60.473,2.075 C60.473,2.26700096 60.4340004,2.44699916 60.356,2.615 C60.2779996,2.78300084 60.1745006,2.92999937 60.0455,3.056 C59.9164994,3.18200063 59.7650009,3.28249963 59.591,3.3575 C59.4169991,3.43250038 59.231001,3.47 59.033,3.47 C58.840999,3.47 58.6595009,3.43250038 58.4885,3.3575 C58.3174991,3.28249963 58.1690006,3.18200063 58.043,3.056 C57.9169994,2.92999937 57.8165004,2.78300084 57.7415,2.615 C57.6664996,2.44699916 57.629,2.26700096 57.629,2.075 C57.629,1.87699901 57.6664996,1.69100087 57.7415,1.517 C57.8165004,1.34299913 57.9169994,1.19300063 58.043,1.067 C58.1690006,0.94099937 58.3174991,0.840500375 58.4885,0.7655 C58.6595009,0.690499625 58.840999,0.653 59.033,0.653 C59.231001,0.653 59.4169991,0.690499625 59.591,0.7655 C59.7650009,0.840500375 59.9164994,0.94099937 60.0455,1.067 C60.1745006,1.19300063 60.2779996,1.34299913 60.356,1.517 C60.4340004,1.69100087 60.473,1.87699901 60.473,2.075 Z M68.231,7.124 C67.9789987,6.81799847 67.7045015,6.60200063 67.4075,6.476 C67.1104985,6.34999937 66.7910017,6.287 66.449,6.287 C66.1129983,6.287 65.8100013,6.34999937 65.54,6.476 C65.2699986,6.60200063 65.039001,6.79249873 64.847,7.0475 C64.654999,7.30250128 64.5080005,7.62649804 64.406,8.0195 C64.3039995,8.41250197 64.253,8.87599733 64.253,9.41 C64.253,9.9500027 64.2964996,10.4074981 64.3835,10.7825 C64.4705004,11.1575019 64.5949992,11.4634988 64.757,11.7005 C64.9190008,11.9375012 65.1169988,12.1084995 65.351,12.2135 C65.5850012,12.3185005 65.8459986,12.371 66.134,12.371 C66.5960023,12.371 66.9889984,12.275001 67.313,12.083 C67.6370016,11.890999 67.9429986,11.6180018 68.231,11.264 L68.231,7.124 Z M70.454,0.626 L70.454,14 L69.095,14 C68.8009985,14 68.6150004,13.8650014 68.537,13.595 L68.348,12.704 C67.9759981,13.1300021 67.5485024,13.4749987 67.0655,13.739 C66.5824976,14.0030013 66.0200032,14.135 65.378,14.135 C64.8739975,14.135 64.4120021,14.0300011 63.992,13.82 C63.5719979,13.609999 63.2105015,13.305502 62.9075,12.9065 C62.6044985,12.507498 62.3705008,12.0140029 62.2055,11.426 C62.0404992,10.8379971 61.958,10.1660038 61.958,9.41 C61.958,8.72599658 62.0509991,8.09000294 62.237,7.502 C62.4230009,6.91399706 62.6899983,6.40400216 63.038,5.972 C63.3860017,5.53999784 63.8029976,5.20250122 64.289,4.9595 C64.7750024,4.71649879 65.320997,4.595 65.927,4.595 C66.4430026,4.595 66.8839982,4.67599919 67.25,4.838 C67.6160018,5.00000081 67.9429986,5.21899862 68.231,5.495 L68.231,0.626 L70.454,0.626 Z M76.025,9.158 C76.3010014,9.158 76.540999,9.12050038 76.745,9.0455 C76.949001,8.97049963 77.1184993,8.86700066 77.2535,8.735 C77.3885007,8.60299934 77.4904997,8.44400093 77.5595,8.258 C77.6285003,8.07199907 77.663,7.86800111 77.663,7.646 C77.663,7.18999772 77.5265014,6.82850134 77.2535,6.5615 C76.9804986,6.29449867 76.5710027,6.161 76.025,6.161 C75.4789973,6.161 75.0695014,6.29449867 74.7965,6.5615 C74.5234986,6.82850134 74.387,7.18999772 74.387,7.646 C74.387,7.86200108 74.4214997,8.06299907 74.4905,8.249 C74.5595003,8.43500093 74.6614993,8.59549933 74.7965,8.7305 C74.9315007,8.86550068 75.102499,8.97049963 75.3095,9.0455 C75.516501,9.12050038 75.7549986,9.158 76.025,9.158 Z M78.536,14.414 C78.536,14.2339991 78.4820005,14.0870006 78.374,13.973 C78.2659995,13.8589994 78.1190009,13.7705003 77.933,13.7075 C77.7469991,13.6444997 77.5295012,13.5980002 77.2805,13.568 C77.0314988,13.5379999 76.7675014,13.5155001 76.4885,13.5005 C76.2094986,13.4854999 75.9215015,13.4720001 75.6245,13.46 C75.3274985,13.4479999 75.0380014,13.4240002 74.756,13.388 C74.5099988,13.5260007 74.3105008,13.6879991 74.1575,13.874 C74.0044992,14.0600009 73.928,14.2759988 73.928,14.522 C73.928,14.6840008 73.9684996,14.8354993 74.0495,14.9765 C74.1305004,15.1175007 74.2594991,15.2389995 74.4365,15.341 C74.6135009,15.4430005 74.8429986,15.5224997 75.125,15.5795 C75.4070014,15.6365003 75.751998,15.665 76.16,15.665 C76.5740021,15.665 76.9309985,15.6335003 77.231,15.5705 C77.5310015,15.5074997 77.778499,15.4205006 77.9735,15.3095 C78.168501,15.1984994 78.3109995,15.0665008 78.401,14.9135 C78.4910004,14.7604992 78.536,14.5940009 78.536,14.414 Z M80.75,5.081 L80.75,5.909 C80.75,6.17300132 80.5910016,6.3349997 80.273,6.395 L79.445,6.548 C79.5710006,6.86600159 79.634,7.21399811 79.634,7.592 C79.634,8.04800228 79.5425009,8.46049816 79.3595,8.8295 C79.1764991,9.19850185 78.9230016,9.51199871 78.599,9.77 C78.2749984,10.0280013 77.8925022,10.2274993 77.4515,10.3685 C77.0104978,10.5095007 76.5350026,10.58 76.025,10.58 C75.8449991,10.58 75.6710008,10.5710001 75.503,10.553 C75.3349992,10.5349999 75.1700008,10.5110002 75.008,10.481 C74.7199986,10.6550009 74.576,10.8499989 74.576,11.066 C74.576,11.2520009 74.6614991,11.3884996 74.8325,11.4755 C75.0035009,11.5625004 75.2299986,11.6239998 75.512,11.66 C75.7940014,11.6960002 76.1149982,11.7185 76.475,11.7275 C76.8350018,11.7365 77.2039981,11.7559999 77.582,11.786 C77.9600019,11.8160002 78.3289982,11.8684996 78.689,11.9435 C79.0490018,12.0185004 79.3699986,12.1369992 79.652,12.299 C79.9340014,12.4610008 80.1604991,12.6814986 80.3315,12.9605 C80.5025009,13.2395014 80.588,13.5979978 80.588,14.036 C80.588,14.444002 80.487501,14.8399981 80.2865,15.224 C80.085499,15.6080019 79.7945019,15.9499985 79.4135,16.25 C79.0324981,16.5500015 78.5645028,16.7914991 78.0095,16.9745 C77.4544972,17.1575009 76.8230035,17.249 76.115,17.249 C75.4189965,17.249 74.8130026,17.1815007 74.297,17.0465 C73.7809974,16.9114993 73.3520017,16.7315011 73.01,16.5065 C72.6679983,16.2814989 72.4130008,16.0220015 72.245,15.728 C72.0769992,15.4339985 71.993,15.1280016 71.993,14.81 C71.993,14.3779978 72.1234987,14.0165015 72.3845,13.7255 C72.6455013,13.4344985 73.0039977,13.2020009 73.46,13.028 C73.2139988,12.9019994 73.0190007,12.7340011 72.875,12.524 C72.7309993,12.313999 72.659,12.0380017 72.659,11.696 C72.659,11.5579993 72.6844997,11.4155007 72.7355,11.2685 C72.7865003,11.1214993 72.8614995,10.9760007 72.9605,10.832 C73.0595005,10.6879993 73.1839993,10.5515006 73.334,10.4225 C73.4840008,10.2934994 73.660999,10.1780005 73.865,10.076 C73.3969977,9.82399874 73.0295013,9.4880021 72.7625,9.068 C72.4954987,8.6479979 72.362,8.15600282 72.362,7.592 C72.362,7.13599772 72.4534991,6.72350185 72.6365,6.3545 C72.8195009,5.98549816 73.0744984,5.67050131 73.4015,5.4095 C73.7285016,5.1484987 74.1154978,4.94900069 74.5625,4.811 C75.0095022,4.67299931 75.4969974,4.604 76.025,4.604 C76.421002,4.604 76.7929983,4.6444996 77.141,4.7255 C77.4890017,4.80650041 77.8069986,4.92499922 78.095,5.081 L80.75,5.081 Z M84.251,6.368 C84.5390014,5.81599724 84.880998,5.38250158 85.277,5.0675 C85.673002,4.75249843 86.1409973,4.595 86.681,4.595 C87.1070021,4.595 87.4489987,4.68799907 87.707,4.874 L87.563,6.539 C87.5329999,6.64700054 87.4895003,6.72349978 87.4325,6.7685 C87.3754997,6.81350023 87.2990005,6.836 87.203,6.836 C87.1129996,6.836 86.9795009,6.82100015 86.8025,6.791 C86.6254991,6.76099985 86.4530008,6.746 86.285,6.746 C86.0389988,6.746 85.820001,6.78199964 85.628,6.854 C85.435999,6.92600036 85.2635008,7.02949933 85.1105,7.1645 C84.9574992,7.29950068 84.8225006,7.46299904 84.7055,7.655 C84.5884994,7.84700096 84.4790005,8.06599877 84.377,8.312 L84.377,14 L82.154,14 L82.154,4.766 L83.459,4.766 C83.6870011,4.766 83.8459996,4.8064996 83.936,4.8875 C84.0260005,4.96850041 84.0859999,5.11399895 84.116,5.324 L84.251,6.368 Z M91.172,4.766 L91.172,14 L88.94,14 L88.94,4.766 L91.172,4.766 Z M91.478,2.075 C91.478,2.26700096 91.4390004,2.44699916 91.361,2.615 C91.2829996,2.78300084 91.1795006,2.92999937 91.0505,3.056 C90.9214994,3.18200063 90.7700009,3.28249963 90.596,3.3575 C90.4219991,3.43250038 90.236001,3.47 90.038,3.47 C89.845999,3.47 89.6645009,3.43250038 89.4935,3.3575 C89.3224991,3.28249963 89.1740006,3.18200063 89.048,3.056 C88.9219994,2.92999937 88.8215004,2.78300084 88.7465,2.615 C88.6714996,2.44699916 88.634,2.26700096 88.634,2.075 C88.634,1.87699901 88.6714996,1.69100087 88.7465,1.517 C88.8215004,1.34299913 88.9219994,1.19300063 89.048,1.067 C89.1740006,0.94099937 89.3224991,0.840500375 89.4935,0.7655 C89.6645009,0.690499625 89.845999,0.653 90.038,0.653 C90.236001,0.653 90.4219991,0.690499625 90.596,0.7655 C90.7700009,0.840500375 90.9214994,0.94099937 91.0505,1.067 C91.1795006,1.19300063 91.2829996,1.34299913 91.361,1.517 C91.4390004,1.69100087 91.478,1.87699901 91.478,2.075 Z M99.236,7.124 C98.9839987,6.81799847 98.7095015,6.60200063 98.4125,6.476 C98.1154985,6.34999937 97.7960017,6.287 97.454,6.287 C97.1179983,6.287 96.8150013,6.34999937 96.545,6.476 C96.2749986,6.60200063 96.044001,6.79249873 95.852,7.0475 C95.659999,7.30250128 95.5130005,7.62649804 95.411,8.0195 C95.3089995,8.41250197 95.258,8.87599733 95.258,9.41 C95.258,9.9500027 95.3014996,10.4074981 95.3885,10.7825 C95.4755004,11.1575019 95.5999992,11.4634988 95.762,11.7005 C95.9240008,11.9375012 96.1219988,12.1084995 96.356,12.2135 C96.5900012,12.3185005 96.8509986,12.371 97.139,12.371 C97.6010023,12.371 97.9939984,12.275001 98.318,12.083 C98.6420016,11.890999 98.9479986,11.6180018 99.236,11.264 L99.236,7.124 Z M101.459,0.626 L101.459,14 L100.1,14 C99.8059985,14 99.6200004,13.8650014 99.542,13.595 L99.353,12.704 C98.9809981,13.1300021 98.5535024,13.4749987 98.0705,13.739 C97.5874976,14.0030013 97.0250032,14.135 96.383,14.135 C95.8789975,14.135 95.4170021,14.0300011 94.997,13.82 C94.5769979,13.609999 94.2155015,13.305502 93.9125,12.9065 C93.6094985,12.507498 93.3755008,12.0140029 93.2105,11.426 C93.0454992,10.8379971 92.963,10.1660038 92.963,9.41 C92.963,8.72599658 93.0559991,8.09000294 93.242,7.502 C93.4280009,6.91399706 93.6949983,6.40400216 94.043,5.972 C94.3910017,5.53999784 94.8079976,5.20250122 95.294,4.9595 C95.7800024,4.71649879 96.325997,4.595 96.932,4.595 C97.4480026,4.595 97.8889982,4.67599919 98.255,4.838 C98.6210018,5.00000081 98.9479986,5.21899862 99.236,5.495 L99.236,0.626 L101.459,0.626 Z" id="Widgrid-(lato,-18px,-bold)" fill="#8C95A3"></path>
                </g>
            </g>
        </g>
    </g>
</svg>